<?xml version="1.0" standalone="no"?>
<!DOCTYPE svg PUBLIC "-//W3C//DTD SVG 20010904//EN"
 "http://www.w3.org/TR/2001/REC-SVG-20010904/DTD/svg10.dtd">
<svg version="1.0" xmlns="http://www.w3.org/2000/svg"
 width="120.000000pt" height="120.000000pt" viewBox="0 0 120.000000 120.000000"
 preserveAspectRatio="xMidYMid meet">

<g transform="translate(0.000000,120.000000) scale(0.100000,-0.100000)"
fill="#000000" stroke="none">
<path d="M525 1193 c-106 -14 -239 -75 -323 -149 -92 -80 -168 -217 -192 -345
-57 -298 148 -606 455 -684 32 -8 93 -15 135 -15 278 0 527 203 585 477 25
117 18 212 -25 327 -31 83 -33 65 -2 -24 21 -63 26 -92 26 -180 -1 -58 -6
-116 -12 -130 -10 -22 -11 -20 -4 15 12 67 6 198 -12 261 -52 178 -198 335
-368 393 -106 36 -102 36 -143 -19 l-37 -50 40 -53 c32 -42 51 -56 101 -75
141 -54 248 -232 226 -375 -11 -74 -36 -141 -47 -126 -7 10 -8 8 -4 -7 8 -27
-24 -71 -94 -129 -13 -12 -20 -14 -15 -5 5 8 -4 5 -19 -8 -69 -53 -222 -68
-321 -31 -73 27 -156 108 -193 186 -22 49 -27 72 -27 143 0 71 5 94 26 140 54
114 158 193 272 206 32 4 57 9 57 12 0 3 -18 27 -40 53 -22 26 -40 53 -40 59
0 6 13 30 29 53 15 23 33 52 40 65 11 20 10 22 -16 21 -15 -1 -41 -4 -58 -6z
m25 -62 c-22 -32 -40 -62 -40 -67 0 -4 18 -29 40 -55 l40 -48 -58 -11 c-102
-22 -181 -76 -242 -167 -38 -58 -40 -42 -2 18 49 76 124 131 219 159 l43 13
-36 43 -35 44 30 44 c31 45 38 66 23 66 -5 0 -40 -8 -80 -19 -77 -20 -162 -64
-232 -120 -25 -20 -36 -25 -25 -13 31 37 145 108 210 131 51 19 123 35 173 40
6 0 -6 -25 -28 -58z m-135 -101 c0 -16 -6 -26 -18 -28 -19 -4 -32 20 -23 44 9
25 41 13 41 -16z"/>
<path d="M715 1176 c158 -36 293 -129 377 -258 17 -27 33 -46 36 -44 7 8 -75
121 -115 157 -91 83 -216 145 -310 154 -46 5 -45 4 12 -9z"/>
<path d="M611 1120 l-40 -51 22 -32 c50 -74 80 -107 96 -107 34 0 120 -52 166
-101 60 -64 86 -125 96 -224 l8 -80 -3 80 c-4 127 -58 225 -163 295 -26 16
-63 35 -83 40 -27 7 -47 24 -78 66 -23 31 -42 60 -42 64 0 4 16 28 35 54 20
25 34 46 31 46 -3 0 -23 -23 -45 -50z"/>
</g>
</svg>
